G04*
G04 #@! TF.GenerationSoftware,Altium Limited,Altium Designer,21.9.2 (33)*
G04*
G04 Layer_Color=128*
%FSLAX25Y25*%
%MOIN*%
G70*
G04*
G04 #@! TF.SameCoordinates,6A624936-E7ED-4F46-B387-0DF574BA1A46*
G04*
G04*
G04 #@! TF.FilePolarity,Positive*
G04*
G01*
G75*
%ADD10C,0.00600*%
%ADD11C,0.00200*%
D10*
X-23991Y28028D02*
G03*
X-23992Y28000I301J-28D01*
G01*
Y28057D02*
G03*
X-23991Y28028I301J0D01*
G01*
X-19685Y32364D02*
G03*
X-23992Y28057I0J-4307D01*
G01*
X19872Y32298D02*
G03*
X19685Y32364I-187J-236D01*
G01*
X20060D02*
G03*
X19872Y32298I-0J-301D01*
G01*
X24423Y28000D02*
G03*
X20060Y32364I-4364J0D01*
G01*
X24420Y-41421D02*
G03*
X24423Y-41378I-298J43D01*
G01*
Y-41464D02*
G03*
X24420Y-41421I-299J0D01*
G01*
X20331Y-45559D02*
G03*
X24423Y-41464I-2J4095D01*
G01*
X-19440Y-45937D02*
G03*
X-19386Y-45932I-0J302D01*
G01*
X-19602Y-45934D02*
G03*
X-19440Y-45937I162J4529D01*
G01*
X-20070Y-45893D02*
G03*
X-19910Y-45937I157J257D01*
G01*
X-23958Y-41419D02*
G03*
X-20070Y-45893I4518J0D01*
G01*
X-23958Y-41419D02*
Y-35479D01*
X-23992Y28000D02*
X-23958Y-35479D01*
X-19685Y32364D02*
X19685D01*
X24424Y-41378D02*
Y28000D01*
X-19386Y-45932D02*
X20331Y-45559D01*
X-19910Y-45937D02*
X-19602Y-45934D01*
D11*
X-4634Y-36500D02*
X3634D01*
X-500Y-40634D02*
Y-32366D01*
X10098Y14142D02*
X12657D01*
X11378Y12862D02*
Y15421D01*
X-12657Y14142D02*
X-10098D01*
X-11378Y12862D02*
Y15421D01*
X-18209Y27921D02*
X-15846D01*
X-17028Y26740D02*
Y29102D01*
X15846Y27921D02*
X18209D01*
X17028Y26740D02*
Y29102D01*
X-18209Y12173D02*
X-15846D01*
X-17028Y10992D02*
Y13354D01*
X15846Y12173D02*
X18209D01*
X17028Y10992D02*
Y13354D01*
X2500Y14000D02*
X3500D01*
X3000Y13500D02*
Y14500D01*
X-1492Y13992D02*
X-492D01*
X-992Y13492D02*
Y14492D01*
M02*
