G04*
G04 #@! TF.GenerationSoftware,Altium Limited,Altium Designer,21.9.2 (33)*
G04*
G04 Layer_Physical_Order=1*
G04 Layer_Color=255*
%FSLAX25Y25*%
%MOIN*%
G70*
G04*
G04 #@! TF.SameCoordinates,A1AEA960-78A4-4295-AD99-E4789AA04FEB*
G04*
G04*
G04 #@! TF.FilePolarity,Positive*
G04*
G01*
G75*
%ADD10C,0.01000*%
%ADD12C,0.00800*%
G04:AMPARAMS|DCode=13|XSize=50mil|YSize=10mil|CornerRadius=2.5mil|HoleSize=0mil|Usage=FLASHONLY|Rotation=90.000|XOffset=0mil|YOffset=0mil|HoleType=Round|Shape=RoundedRectangle|*
%AMROUNDEDRECTD13*
21,1,0.05000,0.00500,0,0,90.0*
21,1,0.04500,0.01000,0,0,90.0*
1,1,0.00500,0.00250,0.02250*
1,1,0.00500,0.00250,-0.02250*
1,1,0.00500,-0.00250,-0.02250*
1,1,0.00500,-0.00250,0.02250*
%
%ADD13ROUNDEDRECTD13*%
G04:AMPARAMS|DCode=14|XSize=86mil|YSize=72mil|CornerRadius=18mil|HoleSize=0mil|Usage=FLASHONLY|Rotation=270.000|XOffset=0mil|YOffset=0mil|HoleType=Round|Shape=RoundedRectangle|*
%AMROUNDEDRECTD14*
21,1,0.08600,0.03600,0,0,270.0*
21,1,0.05000,0.07200,0,0,270.0*
1,1,0.03600,-0.01800,-0.02500*
1,1,0.03600,-0.01800,0.02500*
1,1,0.03600,0.01800,0.02500*
1,1,0.03600,0.01800,-0.02500*
%
%ADD14ROUNDEDRECTD14*%
G04:AMPARAMS|DCode=15|XSize=20mil|YSize=20mil|CornerRadius=5mil|HoleSize=0mil|Usage=FLASHONLY|Rotation=90.000|XOffset=0mil|YOffset=0mil|HoleType=Round|Shape=RoundedRectangle|*
%AMROUNDEDRECTD15*
21,1,0.02000,0.01000,0,0,90.0*
21,1,0.01000,0.02000,0,0,90.0*
1,1,0.01000,0.00500,0.00500*
1,1,0.01000,0.00500,-0.00500*
1,1,0.01000,-0.00500,-0.00500*
1,1,0.01000,-0.00500,0.00500*
%
%ADD15ROUNDEDRECTD15*%
G04:AMPARAMS|DCode=16|XSize=59.06mil|YSize=11.81mil|CornerRadius=2.95mil|HoleSize=0mil|Usage=FLASHONLY|Rotation=270.000|XOffset=0mil|YOffset=0mil|HoleType=Round|Shape=RoundedRectangle|*
%AMROUNDEDRECTD16*
21,1,0.05906,0.00591,0,0,270.0*
21,1,0.05315,0.01181,0,0,270.0*
1,1,0.00591,-0.00295,-0.02657*
1,1,0.00591,-0.00295,0.02657*
1,1,0.00591,0.00295,0.02657*
1,1,0.00591,0.00295,-0.02657*
%
%ADD16ROUNDEDRECTD16*%
%ADD24C,0.00500*%
%ADD25C,0.02559*%
%ADD26O,0.03937X0.06299*%
%ADD27O,0.03937X0.08268*%
%ADD28C,0.01800*%
G36*
X19685Y31138D02*
X20465Y31035D01*
X21191Y30734D01*
X21815Y30256D01*
X22294Y29632D01*
X22595Y28905D01*
X22698Y28125D01*
X22704D01*
Y17748D01*
X22697D01*
X22796Y16999D01*
X23085Y16301D01*
X23545Y15702D01*
X24144Y15242D01*
X24842Y14953D01*
X25591Y14855D01*
Y14862D01*
X30000D01*
X30026Y14867D01*
X32013Y14711D01*
X33977Y14239D01*
X35842Y13466D01*
X37564Y12411D01*
X39100Y11100D01*
X40411Y9564D01*
X41467Y7842D01*
X42239Y5977D01*
X42711Y4013D01*
X42869Y2000D01*
X42711Y-13D01*
X42239Y-1977D01*
X41467Y-3842D01*
X40411Y-5564D01*
X39100Y-7100D01*
X37564Y-8411D01*
X35842Y-9466D01*
X33977Y-10239D01*
X32013Y-10711D01*
X30026Y-10867D01*
X30000Y-10862D01*
X26153D01*
Y-10855D01*
X25405Y-10953D01*
X24707Y-11242D01*
X24108Y-11702D01*
X23648Y-12301D01*
X23359Y-12999D01*
X23260Y-13748D01*
X23267D01*
Y-20001D01*
X23261D01*
X23206Y-20417D01*
X23106Y-20496D01*
X22606Y-20254D01*
Y-16000D01*
X22435Y-15142D01*
X21949Y-14414D01*
X21221Y-13928D01*
X20363Y-13757D01*
X16763D01*
X15905Y-13928D01*
X15177Y-14414D01*
X14691Y-15142D01*
X14520Y-16000D01*
Y-21000D01*
X14691Y-21858D01*
X15133Y-22520D01*
X14995Y-23020D01*
X-14995D01*
X-15133Y-22520D01*
X-14691Y-21858D01*
X-14520Y-21000D01*
Y-16000D01*
X-14691Y-15142D01*
X-15177Y-14414D01*
X-15905Y-13928D01*
X-16763Y-13757D01*
X-20363D01*
X-21221Y-13928D01*
X-21949Y-14414D01*
X-22435Y-15142D01*
X-22606Y-16000D01*
Y-20254D01*
X-23106Y-20496D01*
X-23206Y-20417D01*
X-23261Y-20001D01*
X-23267D01*
Y-13748D01*
X-23260D01*
X-23359Y-12999D01*
X-23648Y-12301D01*
X-24108Y-11702D01*
X-24707Y-11242D01*
X-25405Y-10953D01*
X-26153Y-10855D01*
Y-10862D01*
X-30000D01*
X-30026Y-10867D01*
X-32013Y-10711D01*
X-33977Y-10239D01*
X-35842Y-9466D01*
X-37564Y-8411D01*
X-39100Y-7100D01*
X-40411Y-5564D01*
X-41467Y-3842D01*
X-42239Y-1977D01*
X-42711Y-13D01*
X-42869Y2000D01*
X-42711Y4013D01*
X-42239Y5977D01*
X-41467Y7842D01*
X-40411Y9564D01*
X-39100Y11100D01*
X-37564Y12411D01*
X-35842Y13466D01*
X-33977Y14239D01*
X-32013Y14711D01*
X-30026Y14867D01*
X-30000Y14862D01*
X-25591D01*
Y14855D01*
X-24842Y14953D01*
X-24144Y15242D01*
X-23545Y15702D01*
X-23085Y16301D01*
X-22796Y16999D01*
X-22697Y17748D01*
X-22704D01*
Y28125D01*
X-22698D01*
X-22595Y28905D01*
X-22294Y29632D01*
X-21815Y30256D01*
X-21191Y30734D01*
X-20465Y31035D01*
X-19685Y31138D01*
Y31145D01*
X19685D01*
Y31138D01*
D02*
G37*
%LPC*%
G36*
X5437Y17918D02*
X-5000D01*
X-5351Y17848D01*
X-5649Y17649D01*
X-9198Y14099D01*
X-9698Y14306D01*
Y14476D01*
X-9954Y15093D01*
X-10427Y15566D01*
X-11044Y15821D01*
X-11712D01*
X-12329Y15566D01*
X-12802Y15093D01*
X-13058Y14476D01*
Y13808D01*
X-12802Y13190D01*
X-12329Y12718D01*
X-11712Y12462D01*
X-11323D01*
X-10905Y12026D01*
X-10902Y12015D01*
Y11138D01*
X-10990Y11007D01*
X-11044Y10736D01*
Y5421D01*
X-10990Y5150D01*
X-10957Y5101D01*
Y3920D01*
X-11959Y2918D01*
X-18980D01*
X-19331Y2848D01*
X-19629Y2649D01*
X-21149Y1129D01*
X-21348Y831D01*
X-21418Y480D01*
Y-9500D01*
X-21348Y-9851D01*
X-21149Y-10149D01*
X-19649Y-11649D01*
X-19351Y-11848D01*
X-19000Y-11918D01*
X-4000D01*
X-3649Y-11848D01*
X-3351Y-11649D01*
X-2304Y-10602D01*
X-2105Y-10304D01*
X-2035Y-9953D01*
Y-9153D01*
X-1535Y-8931D01*
X-1488Y-8962D01*
X-1234Y-9013D01*
X-734D01*
X-481Y-8962D01*
X-266Y-8819D01*
X-122Y-8604D01*
X-72Y-8350D01*
Y-3850D01*
X-122Y-3596D01*
X-266Y-3381D01*
X-481Y-3238D01*
X-734Y-3187D01*
X-1234D01*
X-1488Y-3238D01*
X-1667Y-3357D01*
X-1690Y-3370D01*
X-1969Y-3377D01*
X-2247Y-3370D01*
X-2270Y-3357D01*
X-2449Y-3238D01*
X-2703Y-3187D01*
X-3203D01*
X-3456Y-3238D01*
X-3636Y-3357D01*
X-3658Y-3370D01*
X-3937Y-3377D01*
X-4216Y-3370D01*
X-4239Y-3357D01*
X-4418Y-3238D01*
X-4671Y-3187D01*
X-5171D01*
X-5425Y-3238D01*
X-5604Y-3357D01*
X-5627Y-3370D01*
X-5906Y-3377D01*
X-6184Y-3370D01*
X-6207Y-3357D01*
X-6386Y-3238D01*
X-6640Y-3187D01*
X-7140D01*
X-7393Y-3238D01*
X-7608Y-3381D01*
X-7752Y-3596D01*
X-7802Y-3850D01*
Y-6075D01*
X-7807Y-6100D01*
Y-10082D01*
X-18620D01*
X-19582Y-9120D01*
Y100D01*
X-18600Y1082D01*
X-15749D01*
X-15401Y582D01*
X-15418Y500D01*
Y-500D01*
X-15348Y-851D01*
X-15149Y-1149D01*
X-14851Y-1348D01*
X-14500Y-1418D01*
X-13500D01*
X-13149Y-1348D01*
X-12851Y-1149D01*
X-12652Y-851D01*
X-12645Y-816D01*
X-8000D01*
X-8000Y-816D01*
X-7688Y-754D01*
X-7423Y-577D01*
X-6423Y423D01*
X-6423Y423D01*
X-6246Y688D01*
X-6184Y1000D01*
Y4718D01*
X-5780Y4893D01*
X-5706Y4912D01*
X-5488Y4766D01*
X-5217Y4712D01*
X-4626D01*
X-4355Y4766D01*
X-4144Y4907D01*
X-4028Y4876D01*
X-3663Y4711D01*
Y4000D01*
X-3612Y3746D01*
X-3469Y3531D01*
X2290Y-2227D01*
Y-3344D01*
X2234Y-3381D01*
X2090Y-3596D01*
X2040Y-3850D01*
Y-8350D01*
X2090Y-8604D01*
X2234Y-8819D01*
X2449Y-8962D01*
X2703Y-9013D01*
X3203D01*
X3456Y-8962D01*
X3671Y-8819D01*
X3815Y-8604D01*
X3865Y-8350D01*
Y-3850D01*
X3815Y-3596D01*
X3671Y-3381D01*
X3615Y-3344D01*
Y-1953D01*
X3565Y-1699D01*
X3421Y-1484D01*
X-2337Y4275D01*
Y4799D01*
X-2156Y4920D01*
X-1781D01*
X-1551Y4766D01*
X-1280Y4712D01*
X-689D01*
X-418Y4766D01*
X-188Y4920D01*
X188D01*
X418Y4766D01*
X689Y4712D01*
X1280D01*
X1551Y4766D01*
X1781Y4920D01*
X2216Y4844D01*
X2290Y4782D01*
Y1547D01*
X2341Y1294D01*
X2484Y1079D01*
X6227Y-2664D01*
Y-3344D01*
X6171Y-3381D01*
X6027Y-3596D01*
X5977Y-3850D01*
Y-8350D01*
X6027Y-8604D01*
X6171Y-8819D01*
X6386Y-8962D01*
X6640Y-9013D01*
X7140D01*
X7393Y-8962D01*
X7608Y-8819D01*
X7752Y-8604D01*
X7802Y-8350D01*
Y-3850D01*
X7752Y-3596D01*
X7608Y-3381D01*
X7552Y-3344D01*
Y-2390D01*
X7502Y-2136D01*
X7358Y-1921D01*
X3616Y1822D01*
Y2480D01*
X4115Y2529D01*
X4168Y2267D01*
X4344Y2002D01*
X6923Y-577D01*
X6923Y-577D01*
X7188Y-754D01*
X7500Y-816D01*
X10145D01*
X10152Y-851D01*
X10351Y-1149D01*
X10649Y-1348D01*
X11000Y-1418D01*
X12000D01*
X12351Y-1348D01*
X12649Y-1149D01*
X12848Y-851D01*
X12918Y-500D01*
Y500D01*
X12848Y851D01*
X12649Y1149D01*
X12351Y1348D01*
X12000Y1418D01*
X11000D01*
X10649Y1348D01*
X10351Y1149D01*
X10152Y851D01*
X10145Y816D01*
X7838D01*
X5737Y2917D01*
Y4603D01*
X5776Y4638D01*
X6237Y4824D01*
X6323Y4766D01*
X6594Y4712D01*
X7185D01*
X7456Y4766D01*
X7686Y4920D01*
X8062D01*
X8292Y4766D01*
X8563Y4712D01*
X9154D01*
X9425Y4766D01*
X9449Y4782D01*
X9473Y4766D01*
X9744Y4712D01*
X10335D01*
X10606Y4766D01*
X10836Y4920D01*
X10990Y5150D01*
X11044Y5421D01*
Y10736D01*
X10990Y11007D01*
X10957Y11056D01*
Y12000D01*
X11034Y12408D01*
X11441Y12462D01*
X11712D01*
X12329Y12718D01*
X12802Y13190D01*
X13058Y13808D01*
Y14476D01*
X12802Y15093D01*
X12329Y15566D01*
X11712Y15821D01*
X11044D01*
X10427Y15566D01*
X9954Y15093D01*
X9777Y14665D01*
X9236Y14499D01*
X6086Y17649D01*
X5788Y17848D01*
X5437Y17918D01*
D02*
G37*
%LPD*%
D10*
X-20500Y-9500D02*
X-19000Y-11000D01*
X-6000D01*
X-20500Y-9500D02*
Y480D01*
X-6000Y-11000D02*
X-4000D01*
X-18980Y2000D02*
X-11579D01*
X-20500Y480D02*
X-18980Y2000D01*
X-11579D02*
X-10039Y3539D01*
Y8079D01*
X-9984Y12015D02*
X-5000Y17000D01*
X5437D01*
X10039Y12398D01*
X-9984Y8134D02*
Y12015D01*
X-10039Y8079D02*
X-9984Y8134D01*
X10039Y8079D02*
Y12398D01*
X8858Y8079D02*
X10039D01*
X-4000Y-11000D02*
X-2953Y-9953D01*
X-6890Y-10110D02*
X-6000Y-11000D01*
X-2953Y-9953D02*
Y-6100D01*
X-6890Y-10110D02*
Y-6100D01*
D12*
X-7000Y7969D02*
X-6890Y8079D01*
X-7000Y1000D02*
Y7969D01*
X-8000Y0D02*
X-7000Y1000D01*
X-14000Y0D02*
X-8000D01*
X7500D02*
X11500D01*
X4921Y2579D02*
X7500Y0D01*
X4921Y2579D02*
Y8079D01*
D13*
X-6890Y-6100D02*
D03*
X-4921D02*
D03*
X-2953D02*
D03*
X-984D02*
D03*
X984D02*
D03*
X2953D02*
D03*
X4921D02*
D03*
X6890D02*
D03*
D14*
X-18563Y-18500D02*
D03*
X18563D02*
D03*
D15*
X15500Y0D02*
D03*
X11500D02*
D03*
X-18000D02*
D03*
X-14000D02*
D03*
D16*
X-13189Y8079D02*
D03*
X-12008D02*
D03*
X-10039D02*
D03*
X-8858D02*
D03*
X-6890D02*
D03*
X-4921D02*
D03*
X-2953D02*
D03*
X-984D02*
D03*
X984D02*
D03*
X2953D02*
D03*
X4921D02*
D03*
X6890D02*
D03*
X8858D02*
D03*
X10039D02*
D03*
X12008D02*
D03*
X13189D02*
D03*
D24*
X-3000Y4000D02*
X2953Y-1953D01*
X-3000Y4000D02*
Y8032D01*
X6890Y-6100D02*
Y-2390D01*
X2953Y1547D02*
X6890Y-2390D01*
X2953Y1547D02*
Y8079D01*
X-3000Y8032D02*
X-2953Y8079D01*
X2953Y-6100D02*
Y-1953D01*
X2976Y13976D02*
X3000Y14000D01*
X2953Y8079D02*
X2976Y8102D01*
Y13976D01*
X1000Y12000D02*
Y14500D01*
X-42Y15542D02*
X1000Y14500D01*
X984Y11984D02*
X1000Y12000D01*
X-2953Y14547D02*
X-1958Y15542D01*
X-42D01*
X-992Y8087D02*
Y13992D01*
X-2953Y8079D02*
Y14547D01*
X-992Y8087D02*
X-984Y8079D01*
X984D02*
Y11984D01*
X2000Y-11000D02*
X4000D01*
X4921Y-10079D01*
Y-6100D01*
X984Y-9984D02*
X2000Y-11000D01*
X984Y-9984D02*
Y-6100D01*
D25*
X11378Y14142D02*
D03*
X-11378D02*
D03*
D26*
X-17028Y27921D02*
D03*
X17028D02*
D03*
D27*
X-17028Y12173D02*
D03*
X17028D02*
D03*
D28*
X3000Y14000D02*
D03*
X-992Y13992D02*
D03*
M02*
