G04*
G04 #@! TF.GenerationSoftware,Altium Limited,Altium Designer,21.9.2 (33)*
G04*
G04 Layer_Color=2752767*
%FSLAX25Y25*%
%MOIN*%
G70*
G04*
G04 #@! TF.SameCoordinates,6A624936-E7ED-4F46-B387-0DF574BA1A46*
G04*
G04*
G04 #@! TF.FilePolarity,Positive*
G04*
G01*
G75*
%ADD10C,0.00600*%
%ADD11C,0.00200*%
%ADD12C,0.00267*%
D10*
X-23991Y28028D02*
G03*
X-23992Y28000I301J-28D01*
G01*
Y28057D02*
G03*
X-23991Y28028I301J0D01*
G01*
X-19685Y32364D02*
G03*
X-23992Y28057I0J-4307D01*
G01*
X19872Y32298D02*
G03*
X19685Y32364I-187J-236D01*
G01*
X20060D02*
G03*
X19872Y32298I-0J-301D01*
G01*
X24423Y28000D02*
G03*
X20060Y32364I-4364J0D01*
G01*
X24420Y-41421D02*
G03*
X24423Y-41378I-298J43D01*
G01*
Y-41464D02*
G03*
X24420Y-41421I-299J0D01*
G01*
X20331Y-45559D02*
G03*
X24423Y-41464I-2J4095D01*
G01*
X-19440Y-45937D02*
G03*
X-19386Y-45932I-0J302D01*
G01*
X-19602Y-45934D02*
G03*
X-19440Y-45937I162J4529D01*
G01*
X-20070Y-45893D02*
G03*
X-19910Y-45937I157J257D01*
G01*
X-23958Y-41419D02*
G03*
X-20070Y-45893I4518J0D01*
G01*
X-23958Y-41419D02*
Y-35479D01*
X-23992Y28000D02*
X-23958Y-35479D01*
X-19685Y32364D02*
X19685D01*
X24424Y-41378D02*
Y28000D01*
X-19386Y-45932D02*
X20331Y-45559D01*
X-19910Y-45937D02*
X-19602Y-45934D01*
D11*
X-1300Y-37300D02*
Y-35700D01*
X300D01*
Y-37300D01*
X-1300D01*
X-17028Y27121D02*
X-17828Y28721D01*
X-16228D01*
X-17028Y27121D01*
X17028D02*
X16228Y28721D01*
X17828D01*
X17028Y27121D01*
X-17028Y11373D02*
X-16628Y11773D01*
X-16228D01*
X-16628Y12173D01*
X-16228Y12573D01*
X-16628D01*
X-17028Y12973D01*
X-17428Y12573D01*
X-17828D01*
X-17428Y12173D01*
X-17828Y11773D01*
X-17428D01*
X-17028Y11373D01*
X17028D02*
X17428Y11773D01*
X17828D01*
X17428Y12173D01*
X17828Y12573D01*
X17428D01*
X17028Y12973D01*
X16628Y12573D01*
X16228D01*
X16628Y12173D01*
X16228Y11773D01*
X16628D01*
X17028Y11373D01*
X2200Y13200D02*
X2600Y14000D01*
X2200Y14800D01*
X3000Y14400D01*
X3800Y14800D01*
X3400Y14000D01*
X3800Y13200D01*
X3000Y13600D01*
X2200Y13200D01*
X-1792Y13192D02*
X-1392Y13992D01*
X-1792Y14792D01*
X-992Y14392D01*
X-192Y14792D01*
X-592Y13992D01*
X-192Y13192D01*
X-992Y13592D01*
X-1792Y13192D01*
D12*
X12178Y14142D02*
G03*
X12178Y14142I-800J0D01*
G01*
X-10578D02*
G03*
X-10578Y14142I-800J0D01*
G01*
M02*
