G04*
G04 #@! TF.GenerationSoftware,Altium Limited,Altium Designer,21.9.2 (33)*
G04*
G04 Layer_Color=2752767*
%FSLAX25Y25*%
%MOIN*%
G70*
G04*
G04 #@! TF.SameCoordinates,632B97A3-879C-4DF3-8500-06CE12ACAFC3*
G04*
G04*
G04 #@! TF.FilePolarity,Positive*
G04*
G01*
G75*
%ADD10C,0.01000*%
%ADD11C,0.00200*%
%ADD12C,0.00267*%
D10*
X26153Y-11779D02*
G03*
X24185Y-13748I0J-1969D01*
G01*
X20248Y-23938D02*
G03*
X24185Y-20001I0J3937D01*
G01*
X-24185D02*
G03*
X-20248Y-23938I3937J0D01*
G01*
X-24185Y-13748D02*
G03*
X-26153Y-11779I-1969J0D01*
G01*
X30000D02*
G03*
X30000Y15779I0J13780D01*
G01*
X-30000D02*
G03*
X-30000Y-11779I0J-13780D01*
G01*
X23622Y17748D02*
G03*
X25591Y15779I1969J0D01*
G01*
X23622Y28125D02*
G03*
X19685Y32062I-3937J0D01*
G01*
X-19685D02*
G03*
X-23622Y28125I0J-3937D01*
G01*
X-25591Y15779D02*
G03*
X-23622Y17748I0J1969D01*
G01*
X26153Y-11779D02*
X30000D01*
X24185Y-20001D02*
Y-13748D01*
X-20248Y-23938D02*
X20248D01*
X-24185Y-20001D02*
Y-13748D01*
X-30000Y-11779D02*
X-26153D01*
X25591Y15779D02*
X30000D01*
X23622Y17748D02*
Y28125D01*
X-19685Y32062D02*
X19685D01*
X-23622Y17748D02*
Y28125D01*
X-30000Y15779D02*
X-25591D01*
D11*
X10578Y13342D02*
Y14942D01*
X12178D01*
Y13342D01*
X10578D01*
X-12178D02*
Y14942D01*
X-10578D01*
Y13342D01*
X-12178D01*
X-17028Y11373D02*
X-17828Y12973D01*
X-16228D01*
X-17028Y11373D01*
X17028D02*
X16228Y12973D01*
X17828D01*
X17028Y11373D01*
X3000Y13200D02*
X3400Y13600D01*
X3800D01*
X3400Y14000D01*
X3800Y14400D01*
X3400D01*
X3000Y14800D01*
X2600Y14400D01*
X2200D01*
X2600Y14000D01*
X2200Y13600D01*
X2600D01*
X3000Y13200D01*
X-992Y13192D02*
X-592Y13592D01*
X-192D01*
X-592Y13992D01*
X-192Y14392D01*
X-592D01*
X-992Y14792D01*
X-1392Y14392D01*
X-1792D01*
X-1392Y13992D01*
X-1792Y13592D01*
X-1392D01*
X-992Y13192D01*
D12*
X-16228Y27921D02*
G03*
X-16228Y27921I-800J0D01*
G01*
X17828D02*
G03*
X17828Y27921I-800J0D01*
G01*
M02*
